<?xml version="1.0" encoding="utf-8"?>
<!-- Generator: Adobe Illustrator 16.0.0, SVG Export Plug-In . SVG Version: 6.00 Build 0)  -->
<!DOCTYPE svg PUBLIC "-//W3C//DTD SVG 1.1//EN" "http://www.w3.org/Graphics/SVG/1.1/DTD/svg11.dtd">
<svg version="1.1" id="Layer_1" xmlns="http://www.w3.org/2000/svg" xmlns:xlink="http://www.w3.org/1999/xlink" x="0px" y="0px"
	 width="283.46px" height="283.46px" viewBox="0 0 283.46 283.46" enable-background="new 0 0 283.46 283.46" xml:space="preserve">
<path fill="#FFFFFF" d="M238.144,31.55h-57.565c-5.792-15.977-20.944-27.547-38.848-27.547c-17.903,0-33.051,11.57-38.842,27.547
	H45.322c-15.149,0-27.547,12.395-27.547,27.545v192.821c0,15.152,12.398,27.543,27.547,27.543h192.822
	c15.147,0,27.542-12.391,27.542-27.543V59.095C265.686,43.944,253.291,31.55,238.144,31.55z M141.73,31.55
	c7.573,0,13.776,6.193,13.776,13.772c0,7.574-6.203,13.773-13.776,13.773c-7.571,0-13.77-6.199-13.77-13.773
	C127.96,37.743,134.16,31.55,141.73,31.55z M141.73,86.643c22.867,0,41.318,18.454,41.318,41.317
	c0,22.86-18.451,41.317-41.318,41.317c-22.86,0-41.315-18.457-41.315-41.317C100.415,105.096,118.871,86.643,141.73,86.643z
	 M224.366,251.916H59.098v-19.279c0-27.551,55.091-42.697,82.633-42.697c27.546,0,82.636,15.146,82.636,42.697V251.916z"/>
</svg>
