<?xml version="1.0" encoding="utf-8"?>
<!-- Generator: Adobe Illustrator 16.0.0, SVG Export Plug-In . SVG Version: 6.00 Build 0)  -->
<!DOCTYPE svg PUBLIC "-//W3C//DTD SVG 1.1//EN" "http://www.w3.org/Graphics/SVG/1.1/DTD/svg11.dtd">
<svg version="1.1" id="Layer_1" xmlns="http://www.w3.org/2000/svg" xmlns:xlink="http://www.w3.org/1999/xlink" x="0px" y="0px"
	 width="283.46px" height="283.46px" viewBox="0 0 283.46 283.46" enable-background="new 0 0 283.46 283.46" xml:space="preserve">
<path fill="#FFFFFF" d="M257.434,5.777L6.874,256.33c1.374,5.19,4.117,9.918,7.777,13.73c3.812,3.656,8.542,6.404,13.728,7.774
	L279.081,27.279C276.19,16.756,267.955,8.521,257.434,5.777z M141.075,4.556L5.656,139.979v43.154L184.237,4.556H141.075z
	 M36.155,4.556c-16.776,0-30.5,13.724-30.5,30.5v30.5l61-61H36.155z M249.66,279.056c8.385,0,16.01-3.351,21.505-8.995
	c5.644-5.495,8.994-13.121,8.994-21.505v-30.5l-60.999,61H249.66z M101.579,279.056h43.159l135.422-135.418v-43.159L101.579,279.056
	z"/>
</svg>
