<?xml version="1.0" encoding="utf-8"?>
<!-- Generator: Adobe Illustrator 16.0.0, SVG Export Plug-In . SVG Version: 6.00 Build 0)  -->
<!DOCTYPE svg PUBLIC "-//W3C//DTD SVG 1.1//EN" "http://www.w3.org/Graphics/SVG/1.1/DTD/svg11.dtd">
<svg version="1.1" id="Layer_1" xmlns="http://www.w3.org/2000/svg" xmlns:xlink="http://www.w3.org/1999/xlink" x="0px" y="0px"
	 width="283.46px" height="283.46px" viewBox="0 0 283.46 283.46" enable-background="new 0 0 283.46 283.46" xml:space="preserve">
<path fill="#FFFFFF" d="M280.701,78.815V3.321h-75.499v25.165H79.376V3.321H3.881v75.494h25.165v125.831H3.881v75.492h75.495
	v-25.163h125.826v25.163h75.499v-75.492h-25.176V78.815H280.701z M29.046,28.486H54.21V53.65H29.046V28.486z M54.21,254.976H29.046
	v-25.168H54.21V254.976z M205.202,229.808H79.376v-25.161H54.21V78.815h25.166V53.65h125.826v25.165h25.164v125.831h-25.164V229.808
	z M255.525,254.976h-25.159v-25.168h25.159V254.976z M230.366,53.65V28.486h25.159V53.65H230.366z M164.052,166.895h-43.909
	l-9.185,25.165H90.571l42.783-113.244h17.616l42.904,113.244h-20.511L164.052,166.895z M125.806,151.047h32.838l-16.357-48.199
	L125.806,151.047z"/>
</svg>
