<?xml version="1.0" encoding="utf-8"?>
<!-- Generator: Adobe Illustrator 16.0.0, SVG Export Plug-In . SVG Version: 6.00 Build 0)  -->
<!DOCTYPE svg PUBLIC "-//W3C//DTD SVG 1.1//EN" "http://www.w3.org/Graphics/SVG/1.1/DTD/svg11.dtd">
<svg version="1.1" id="Layer_1" xmlns="http://www.w3.org/2000/svg" xmlns:xlink="http://www.w3.org/1999/xlink" x="0px" y="0px"
	 width="283.46px" height="283.46px" viewBox="0 0 283.46 283.46" enable-background="new 0 0 283.46 283.46" xml:space="preserve">
<path fill="#FFFFFF" d="M186.045,117.892l-36.36-54.458c-1.582-2.325-4.231-3.487-6.894-3.487c-2.656,0-5.311,1.162-6.89,3.571
	l-36.358,54.375H59.779c-4.566,0-8.301,3.734-8.301,8.297c0,0.75,0.083,1.497,0.331,2.244l21.088,76.953
	c1.908,6.972,8.301,12.121,15.938,12.121h107.917c7.636,0,14.029-5.149,16.02-12.121l21.084-76.953l0.253-2.244
	c0-4.563-3.737-8.297-8.304-8.297H186.045z M117.891,117.892l24.9-36.526l24.908,36.526H117.891z M142.791,184.302
	c-9.13,0-16.6-7.469-16.6-16.603c0-9.131,7.47-16.603,16.6-16.603c9.135,0,16.603,7.472,16.603,16.603
	C159.394,176.833,151.926,184.302,142.791,184.302z"/>
<path fill="none" stroke="#FFFFFF" stroke-width="7" stroke-miterlimit="10" d="M281.255,243.398
	c0,20.399-16.537,36.939-36.939,36.939H42.702c-20.401,0-36.939-16.54-36.939-36.939V41.781c0-20.399,16.539-36.936,36.939-36.936
	h201.614c20.402,0,36.939,16.537,36.939,36.936V243.398z"/>
</svg>
